<svg width="18" height="20" viewBox="0 0 18 20" fill="none" xmlns="http://www.w3.org/2000/svg">
<path d="M14.7129 10.5693C14.7031 8.92994 15.4546 7.69441 16.9722 6.78339C16.1235 5.58151 14.8393 4.92048 13.1466 4.79308C11.5439 4.66809 9.79041 5.71612 9.14835 5.71612C8.46981 5.71612 6.91817 4.83635 5.69728 4.83635C3.17768 4.87481 0.5 6.82185 0.5 10.7832C0.5 11.9539 0.716452 13.163 1.14936 14.4081C1.72818 16.0475 3.81488 20.0641 5.99156 19.9992C7.12976 19.9728 7.93476 19.2012 9.41588 19.2012C10.8532 19.2012 11.5974 19.9992 12.867 19.9992C15.0631 19.968 16.9504 16.3167 17.5 14.6725C14.5548 13.3 14.7129 10.6534 14.7129 10.5693ZM12.1568 3.23785C13.3898 1.7908 13.278 0.473539 13.2415 0C12.1519 0.0624976 10.8921 0.733145 10.1747 1.55763C9.38426 2.44221 8.91974 3.53592 9.01946 4.76905C10.1966 4.85798 11.2715 4.25945 12.1568 3.23785Z" fill="white"/>
</svg>
