<svg width="23" height="23" viewBox="0 0 23 23" fill="none" xmlns="http://www.w3.org/2000/svg">
<path fill-rule="evenodd" clip-rule="evenodd" d="M9.49426 2.76592L11.467 4.7504L11.4817 4.76557C12.0209 5.33289 12.2424 6.11945 12.2424 6.82819C12.2424 7.53693 12.0209 8.32345 11.4818 8.89077L10.5219 9.9008C10.7479 10.7321 11.2864 11.6489 12.0363 12.4432C12.7881 13.2394 13.661 13.8159 14.4667 14.0566L15.426 13.0472C15.9654 12.4796 16.7138 12.2459 17.3889 12.2459C18.0639 12.2459 18.8124 12.4796 19.3518 13.0471C19.3518 13.0471 19.3518 13.0471 19.3518 13.0471L21.3194 15.1175C21.8585 15.6848 22.08 16.4714 22.08 17.1801C22.08 17.8889 21.8584 18.6754 21.3193 19.2427C19.8522 20.7866 17.9382 21.2518 17.0608 21.2518C15.7028 21.2518 14.4762 21.1641 13.0641 20.4705C11.6873 19.7942 10.2028 18.5767 8.21203 16.4818C6.19428 14.3586 5.04735 12.6223 4.41288 11.0966C3.7697 9.54999 3.67999 8.28239 3.67999 7.17332C3.67999 6.39748 3.77285 5.65485 4.08211 4.89559C4.38828 4.14395 4.88013 3.44063 5.58851 2.69522C6.14313 2.1116 6.90773 1.90696 7.581 1.93427C8.25171 1.96147 8.97284 2.22246 9.49426 2.76592ZM7.50997 3.86483C7.20547 3.85248 6.9923 3.95327 6.891 4.05987C6.2877 4.69471 5.95967 5.19919 5.77388 5.65533C5.59118 6.10386 5.51999 6.56899 5.51999 7.17332C5.51999 8.13472 5.59442 9.10983 6.09913 10.3235C6.61256 11.5581 7.59727 13.0997 9.51453 15.1172C11.4588 17.1631 12.7613 18.1888 13.8438 18.7205C14.8908 19.2348 15.7955 19.3198 17.0608 19.3198C17.5272 19.3198 18.9461 19.0047 20.0168 17.8781C20.1336 17.7552 20.24 17.5065 20.24 17.1801C20.24 16.8536 20.1336 16.605 20.0169 16.4822L18.0493 14.4118C17.9329 14.2893 17.6976 14.1779 17.3889 14.1779C17.0802 14.1779 16.8449 14.2893 16.7285 14.4118L15.4168 15.7921C15.2121 16.0074 14.9228 16.1089 14.636 16.0661C13.1986 15.8515 11.7954 14.9323 10.7296 13.8034C9.66404 12.6748 8.80856 11.202 8.60806 9.72503C8.56725 9.42449 8.66338 9.12129 8.8676 8.90639L10.1793 7.52613C10.296 7.40332 10.4024 7.15463 10.4024 6.82816C10.4024 6.50662 10.2992 6.26058 10.1846 6.13595L8.21477 4.15437L8.20002 4.1392C8.06612 3.99832 7.81352 3.87714 7.50997 3.86483Z" fill="#950714"/>
</svg>
