<svg width="25" height="25" viewBox="0 0 25 25" fill="none" xmlns="http://www.w3.org/2000/svg">
<path fill-rule="evenodd" clip-rule="evenodd" d="M12.5 24C18.8513 24 24 18.8513 24 12.5C24 6.14873 18.8513 1 12.5 1C6.14873 1 1 6.14873 1 12.5C1 18.8513 6.14873 24 12.5 24ZM12.5 25C19.4036 25 25 19.4036 25 12.5C25 5.59644 19.4036 0 12.5 0C5.59644 0 0 5.59644 0 12.5C0 19.4036 5.59644 25 12.5 25Z" fill="#950714"/>
<g clip-path="url(#clip0_117_1395)">
<path d="M8.33334 12C8.88563 12 9.33334 12.4477 9.33334 13C9.33334 13.5523 8.88563 14 8.33334 14C7.78106 14 7.33334 13.5523 7.33334 13C7.33334 12.4477 7.78106 12 8.33334 12Z" fill="#950714"/>
<path d="M12.3333 12C12.8856 12 13.3333 12.4477 13.3333 13C13.3333 13.5523 12.8856 14 12.3333 14C11.7811 14 11.3333 13.5523 11.3333 13C11.3333 12.4477 11.7811 12 12.3333 12Z" fill="#950714"/>
<path d="M16.3333 12C16.8856 12 17.3333 12.4477 17.3333 13C17.3333 13.5523 16.8856 14 16.3333 14C15.7811 14 15.3333 13.5523 15.3333 13C15.3333 12.4477 15.7811 12 16.3333 12Z" fill="#950714"/>
</g>
<defs>
<clipPath id="clip0_117_1395">
<rect width="2" height="13" fill="white" transform="matrix(0 -1 1 0 6 14)"/>
</clipPath>
</defs>
</svg>
