<svg width="22" height="22" viewBox="0 0 22 22" fill="none" xmlns="http://www.w3.org/2000/svg">
<path fill-rule="evenodd" clip-rule="evenodd" d="M18.5965 4.80597C18.9531 4.80597 19.25 5.10205 19.25 5.4788V5.82713C19.25 6.19471 18.9531 6.49996 18.5965 6.49996H3.40437C3.04687 6.49996 2.75 6.19471 2.75 5.82713V5.4788C2.75 5.10205 3.04687 4.80597 3.40437 4.80597H6.0771C6.62003 4.80597 7.09253 4.42006 7.21466 3.87556L7.35463 3.2504C7.57216 2.39883 8.28804 1.83325 9.10733 1.83325H12.8927C13.703 1.83325 14.427 2.39883 14.6365 3.20549L14.7862 3.87465C14.9075 4.42006 15.38 4.80597 15.9238 4.80597H18.5965ZM17.2387 17.5394C17.5177 14.9389 18.0063 8.76062 18.0063 8.69828C18.0241 8.50945 17.9626 8.3307 17.8404 8.18679C17.7094 8.05204 17.5436 7.97229 17.3608 7.97229H4.64614C4.46249 7.97229 4.28776 8.05204 4.16651 8.18679C4.04349 8.3307 3.98286 8.50945 3.99178 8.69828C3.99342 8.70974 4.01095 8.92736 4.04026 9.2912C4.17045 10.9075 4.53307 15.4092 4.76739 17.5394C4.93321 19.1088 5.9629 20.0951 7.45439 20.1308C8.60532 20.1574 9.79103 20.1666 11.0035 20.1666C12.1455 20.1666 13.3053 20.1574 14.4919 20.1308C16.0351 20.1043 17.0639 19.1353 17.2387 17.5394Z" fill="#950714"/>
</svg>
