<svg width="14" height="16" viewBox="0 0 14 16" fill="none" xmlns="http://www.w3.org/2000/svg">
<path d="M14 5.14286C14 2.30357 10.8646 0 7 0C3.13542 0 0 2.30357 0 5.14286C0 7.58929 2.32847 9.63929 5.44444 10.1571V12H3.69444C3.37361 12 3.11111 12.1929 3.11111 12.4286V13.8571C3.11111 14.0929 3.37361 14.2857 3.69444 14.2857H5.44444V15.5714C5.44444 15.8071 5.70694 16 6.02778 16H7.97222C8.29306 16 8.55556 15.8071 8.55556 15.5714V14.2857H10.3056C10.6264 14.2857 10.8889 14.0929 10.8889 13.8571V12.4286C10.8889 12.1929 10.6264 12 10.3056 12H8.55556V10.1571C11.6715 9.63929 14 7.58929 14 5.14286ZM3.11111 5.14286C3.11111 3.56786 4.85625 2.28571 7 2.28571C9.14375 2.28571 10.8889 3.56786 10.8889 5.14286C10.8889 6.71786 9.14375 8 7 8C4.85625 8 3.11111 6.71786 3.11111 5.14286Z" fill="#212121"/>
</svg>
