<svg width="18" height="20" viewBox="0 0 18 20" fill="none" xmlns="http://www.w3.org/2000/svg">
<path fill-rule="evenodd" clip-rule="evenodd" d="M9.45928 1.31329C10.2792 0.472404 11.3913 0 12.5509 0C14.9656 0 16.9231 2.0075 16.9231 4.48387C16.9231 5.67307 16.4624 6.81356 15.6425 7.65445L8.21907 15.2675C7.74109 15.7577 7.09282 16.0331 6.41685 16.0331C5.00923 16.0331 3.86813 14.8628 3.86813 13.4192C3.86813 12.726 4.13665 12.0611 4.61463 11.571L11.8168 4.1848L12.8425 5.23669L5.64032 12.6229C5.43437 12.8341 5.31867 13.1205 5.31867 13.4192C5.31867 14.0412 5.81034 14.5455 6.41685 14.5455C6.70811 14.5455 6.98743 14.4268 7.19338 14.2156L14.6168 6.60255C15.1647 6.04064 15.4725 5.27853 15.4725 4.48387C15.4725 2.82908 14.1644 1.4876 12.5509 1.4876C11.776 1.4876 11.0329 1.80328 10.485 2.36519L2.84035 10.2051C1.95047 11.1177 1.45055 12.3555 1.45055 13.6461C1.45055 16.3337 3.57499 18.5124 6.19563 18.5124C7.4541 18.5124 8.66103 17.9997 9.55091 17.0871L16.9743 9.47405L18 10.5259L10.5766 18.139C9.41469 19.3306 7.83881 20 6.19563 20C2.77388 20 0 17.1553 0 13.6461C0 11.9609 0.652752 10.3448 1.81466 9.15321L9.45928 1.31329Z" fill="#FDFDFD"/>
</svg>
