<svg width="20" height="20" viewBox="0 0 20 20" fill="none" xmlns="http://www.w3.org/2000/svg">
<path d="M15.2507 7.49916H10.5007V9.68666C10.5007 11.2374 9.49132 12.4992 8.2507 12.4992C7.01007 12.4992 6.0007 11.2374 6.0007 9.68666V4.93666L3.97258 6.46009C3.36946 6.90931 3.00071 7.72572 3.00071 8.60072V10.4484L0.500712 12.2531C0.0225877 12.5968 -0.143037 13.3624 0.135088 13.9601L2.63508 19.3742C2.91008 19.9718 3.52258 20.1749 4.00071 19.8312L7.23195 17.4992H11.5007C12.6038 17.4992 13.5007 16.3781 13.5007 14.9992H14.0007C14.5538 14.9992 15.0007 14.4406 15.0007 13.7492V11.2492H15.2507C15.6663 11.2492 16.0007 10.8312 16.0007 10.3117V8.43666C16.0007 7.91712 15.6663 7.49916 15.2507 7.49916ZM19.8663 6.03822L17.3663 0.624155C17.0913 0.0264987 16.4788 -0.176626 16.0007 0.167124L12.7694 2.49916H9.5757C9.2007 2.49916 8.83507 2.63197 8.51632 2.87806L7.46945 3.69447C7.1757 3.92103 7.0007 4.32337 7.0007 4.75306V9.68666C7.0007 10.5499 7.56007 11.2492 8.2507 11.2492C8.94132 11.2492 9.5007 10.5499 9.5007 9.68666V6.24916H15.2507C16.2163 6.24916 17.0007 7.22962 17.0007 8.43666V9.54994L19.5007 7.74525C19.9788 7.39759 20.1413 6.63587 19.8663 6.03822Z" fill="#950714"/>
</svg>
