<svg width="16" height="16" viewBox="0 0 16 16" fill="none" xmlns="http://www.w3.org/2000/svg">
<path d="M15.5 0H12.2083C11.7625 0 11.5417 0.5375 11.8542 0.854167L12.5583 1.55833L9.19583 4.92083C8.27083 4.3375 7.175 4 6 4C2.6875 4 0 6.6875 0 10C0 13.3125 2.6875 16 6 16C9.3125 16 12 13.3125 12 10C12 8.825 11.6625 7.72917 11.0792 6.80417L14.4417 3.44167L15.1458 4.14583C15.4625 4.4625 16 4.2375 16 3.79167V0.5C16 0.225 15.775 0 15.5 0ZM6 13.3333C4.1625 13.3333 2.66667 11.8375 2.66667 10C2.66667 8.1625 4.1625 6.66667 6 6.66667C7.8375 6.66667 9.33333 8.1625 9.33333 10C9.33333 11.8375 7.8375 13.3333 6 13.3333Z" fill="white"/>
</svg>
