<svg width="24" height="24" viewBox="0 0 24 24" fill="none" xmlns="http://www.w3.org/2000/svg">
<path d="M14.0317 1C14.1869 1.00001 14.338 1.05041 14.4634 1.14394C14.5888 1.23748 14.682 1.36933 14.7295 1.5205L15.5357 4.084C15.8743 4.2535 16.1983 4.444 16.5076 4.6585L19.0816 4.0915C19.2334 4.05834 19.3915 4.07534 19.5333 4.14003C19.675 4.20473 19.793 4.31379 19.8703 4.4515L21.902 8.05C21.9795 8.18763 22.0124 8.34693 21.9958 8.5049C21.9792 8.66288 21.914 8.81139 21.8096 8.929L20.0432 10.924C20.069 11.3065 20.069 11.6905 20.0432 12.073L21.8096 14.071C21.914 14.1886 21.9792 14.3371 21.9958 14.4951C22.0124 14.6531 21.9795 14.8124 21.902 14.95L19.8703 18.55C19.7928 18.6874 19.6747 18.7962 19.533 18.8606C19.3913 18.925 19.2332 18.9418 19.0816 18.9085L16.5076 18.3415C16.1997 18.5545 15.8743 18.7465 15.5371 18.916L14.7295 21.4795C14.682 21.6307 14.5888 21.7625 14.4634 21.8561C14.338 21.9496 14.1869 22 14.0317 22H9.9683C9.81313 22 9.66196 21.9496 9.53657 21.8561C9.41118 21.7625 9.31803 21.6307 9.27055 21.4795L8.46579 18.9175C8.12808 18.7485 7.80235 18.5555 7.49098 18.34L4.91838 18.9085C4.76661 18.9417 4.60847 18.9247 4.46675 18.86C4.32502 18.7953 4.20702 18.6862 4.12974 18.5485L2.09805 14.95C2.02046 14.8124 1.9876 14.6531 2.0042 14.4951C2.0208 14.3371 2.086 14.1886 2.1904 14.071L3.95677 12.073C3.93118 11.6914 3.93118 11.3086 3.95677 10.927L2.1904 8.929C2.086 8.81139 2.0208 8.66288 2.0042 8.5049C1.9876 8.34693 2.02046 8.18763 2.09805 8.05L4.12974 4.45C4.20723 4.31256 4.32533 4.20381 4.46704 4.13939C4.60874 4.07497 4.76677 4.05821 4.91838 4.0915L7.49098 4.66C7.80175 4.4455 8.12717 4.252 8.46579 4.0825L9.27202 1.5205C9.31934 1.36982 9.41205 1.23832 9.53685 1.14482C9.66166 1.05133 9.81217 1.00064 9.96684 1L14.0302 1H14.0317ZM13.4952 2.5L10.5048 2.5L9.6722 5.1505L9.11077 5.431C8.83477 5.56921 8.56834 5.72657 8.31334 5.902L7.79442 6.262L5.1324 5.674L3.63721 8.326L5.46222 10.393L5.41824 11.029C5.39718 11.3426 5.39718 11.6574 5.41824 11.971L5.46222 12.607L3.63428 14.674L5.13093 17.326L7.79295 16.7395L8.31187 17.098C8.56687 17.2734 8.83331 17.4308 9.1093 17.569L9.67073 17.8495L10.5048 20.5H13.4981L14.3337 17.848L14.8936 17.569C15.1693 17.4311 15.4353 17.2737 15.6896 17.098L16.207 16.7395L18.8705 17.326L20.3657 14.674L18.5392 12.607L18.5832 11.971C18.6044 11.6569 18.6044 11.3416 18.5832 11.0275L18.5392 10.3915L20.3672 8.326L18.8705 5.674L16.207 6.259L15.6896 5.902C15.4353 5.72622 15.1693 5.56884 14.8936 5.431L14.3337 5.152L13.4967 2.5H13.4952ZM12 7C13.1663 7 14.2849 7.47411 15.1096 8.31802C15.9343 9.16193 16.3976 10.3065 16.3976 11.5C16.3976 12.6935 15.9343 13.8381 15.1096 14.682C14.2849 15.5259 13.1663 16 12 16C10.8337 16 9.71513 15.5259 8.89042 14.682C8.06571 13.8381 7.60239 12.6935 7.60239 11.5C7.60239 10.3065 8.06571 9.16193 8.89042 8.31802C9.71513 7.47411 10.8337 7 12 7V7ZM12 8.5C11.2225 8.5 10.4768 8.81607 9.92695 9.37868C9.37714 9.94129 9.06826 10.7044 9.06826 11.5C9.06826 12.2956 9.37714 13.0587 9.92695 13.6213C10.4768 14.1839 11.2225 14.5 12 14.5C12.7775 14.5 13.5232 14.1839 14.0731 13.6213C14.6229 13.0587 14.9317 12.2956 14.9317 11.5C14.9317 10.7044 14.6229 9.94129 14.0731 9.37868C13.5232 8.81607 12.7775 8.5 12 8.5V8.5Z" fill="#212121"/>
</svg>
