<svg width="21" height="21" viewBox="0 0 21 21" fill="none" xmlns="http://www.w3.org/2000/svg">
<path d="M18.375 2.625H14C14 1.17715 12.4305 0 10.5 0C8.56953 0 7 1.17715 7 2.625H2.625C1.17578 2.625 0 3.50684 0 4.59375V19.0312C0 20.1182 1.17578 21 2.625 21H18.375C19.8242 21 21 20.1182 21 19.0312V4.59375C21 3.50684 19.8242 2.625 18.375 2.625ZM5.25 17.3906C4.52266 17.3906 3.9375 16.9518 3.9375 16.4062C3.9375 15.8607 4.52266 15.4219 5.25 15.4219C5.97734 15.4219 6.5625 15.8607 6.5625 16.4062C6.5625 16.9518 5.97734 17.3906 5.25 17.3906ZM5.25 13.4531C4.52266 13.4531 3.9375 13.0143 3.9375 12.4688C3.9375 11.9232 4.52266 11.4844 5.25 11.4844C5.97734 11.4844 6.5625 11.9232 6.5625 12.4688C6.5625 13.0143 5.97734 13.4531 5.25 13.4531ZM5.25 9.51562C4.52266 9.51562 3.9375 9.07676 3.9375 8.53125C3.9375 7.98574 4.52266 7.54688 5.25 7.54688C5.97734 7.54688 6.5625 7.98574 6.5625 8.53125C6.5625 9.07676 5.97734 9.51562 5.25 9.51562ZM10.5 1.64062C11.2273 1.64062 11.8125 2.07949 11.8125 2.625C11.8125 3.17051 11.2273 3.60938 10.5 3.60938C9.77266 3.60938 9.1875 3.17051 9.1875 2.625C9.1875 2.07949 9.77266 1.64062 10.5 1.64062ZM17.5 16.7344C17.5 16.9148 17.3031 17.0625 17.0625 17.0625H9.1875C8.94687 17.0625 8.75 16.9148 8.75 16.7344V16.0781C8.75 15.8977 8.94687 15.75 9.1875 15.75H17.0625C17.3031 15.75 17.5 15.8977 17.5 16.0781V16.7344ZM17.5 12.7969C17.5 12.9773 17.3031 13.125 17.0625 13.125H9.1875C8.94687 13.125 8.75 12.9773 8.75 12.7969V12.1406C8.75 11.9602 8.94687 11.8125 9.1875 11.8125H17.0625C17.3031 11.8125 17.5 11.9602 17.5 12.1406V12.7969ZM17.5 8.85938C17.5 9.03984 17.3031 9.1875 17.0625 9.1875H9.1875C8.94687 9.1875 8.75 9.03984 8.75 8.85938V8.20312C8.75 8.02266 8.94687 7.875 9.1875 7.875H17.0625C17.3031 7.875 17.5 8.02266 17.5 8.20312V8.85938Z" fill="#950714"/>
</svg>
