<svg width="25" height="17" viewBox="0 0 25 17" fill="none" xmlns="http://www.w3.org/2000/svg">
<path d="M2.07465 1H14.592C15.167 1 15.6667 1.48092 15.6667 2.11615V14.8839C15.6667 15.5191 15.167 16 14.592 16H2.07465C1.49968 16 1 15.5191 1 14.8839V2.11615C1 1.48092 1.49968 1 2.07465 1ZM19.0556 11.4646V5.53502L23.3855 2.48857C23.3858 2.48837 23.386 2.48818 23.3863 2.48799C23.6434 2.30921 24 2.49026 24 2.8112V14.1844C24 14.5078 23.6413 14.6866 23.3874 14.5083C23.3874 14.5083 23.3873 14.5083 23.3873 14.5083L19.0556 11.4646Z" stroke="#950714" stroke-width="2"/>
</svg>
